<?xml version="1.0" encoding="UTF-8"?>
<!DOCTYPE svg PUBLIC "-//W3C//DTD SVG 1.1//EN" "http://www.w3.org/Graphics/SVG/1.1/DTD/svg11.dtd">
<!-- Creator: CorelDRAW -->
<svg xmlns="http://www.w3.org/2000/svg" xml:space="preserve" width="61.8436mm" height="12.5203mm" version="1.1" style="shape-rendering:geometricPrecision; text-rendering:geometricPrecision; image-rendering:optimizeQuality; fill-rule:evenodd; clip-rule:evenodd"
viewBox="0 0 6170.13 1249.15"
 xmlns:xlink="http://www.w3.org/1999/xlink"
 xmlns:xodm="http://www.corel.com/coreldraw/odm/2003">
 <defs>
  <style type="text/css">
   <![CDATA[
    .fil1 {fill:white}
    .fil0 {fill:white;fill-opacity:0.600000}
   ]]>
  </style>
 </defs>
 <g id="Camada_x0020_1">
  <metadata id="CorelCorpID_0Corel-Layer"/>
  <path class="fil0" d="M2243.57 1224.4l308.45 0c10.61,0 19.7,-5.58 24.51,-15.05 4.81,-9.46 3.96,-20.09 -2.29,-28.67l-351.77 -482.1c-5.34,-7.31 -13.13,-11.28 -22.19,-11.28 -9.06,-0.02 -16.86,3.94 -22.22,11.24l-154.91 211.48c-7.2,9.84 -7.2,22.67 0,32.51l198.23 270.62c5.35,7.3 13.14,11.25 22.19,11.25z"/>
  <path class="fil1" d="M1702.07 1224.4l-308.45 0c-10.62,0 -19.71,-5.58 -24.52,-15.05 -4.81,-9.46 -3.95,-20.09 2.3,-28.67l400.43 -548.81c7.17,-9.84 7.16,-22.65 -0.03,-32.47l-400.25 -546.4c-6.28,-8.57 -7.14,-19.22 -2.34,-28.69 4.81,-9.48 13.91,-15.07 24.53,-15.07l311.75 0c9.07,0 16.87,3.96 22.22,11.29l422.37 578.85c7.17,9.83 7.16,22.64 -0.03,32.46l-425.79 581.31c-5.35,7.3 -13.14,11.25 -22.19,11.25z"/>
  <path class="fil0" d="M2023.03 287.64l194.9 -267.1c5.35,-7.33 13.15,-11.29 22.22,-11.29l311.74 0c10.63,0 19.73,5.59 24.53,15.07 4.8,9.48 3.93,20.12 -2.34,28.69l-351.46 479.79c-5.35,7.31 -13.15,11.26 -22.21,11.25 -9.06,-0.01 -16.85,-3.97 -22.2,-11.29l-155.18 -212.69c-7.16,-9.82 -7.16,-22.6 0,-32.43z"/>
  <path class="fil1" d="M834.51 1030.44l-403.76 0c-11.71,0 -21.7,6.94 -25.78,17.92l-58.76 158.12c-4.08,10.97 -14.06,17.92 -25.78,17.92l-292.82 0c-9.35,0 -17.39,-4.23 -22.68,-11.94 -5.29,-7.7 -6.35,-16.73 -2.99,-25.45l447.02 -1160.14c4.17,-10.83 14.07,-17.62 25.66,-17.62l316.03 0c11.6,0 21.49,6.79 25.66,17.62l447.03 1160.14c3.36,8.72 2.3,17.75 -2.98,25.45 -5.3,7.71 -13.33,11.94 -22.68,11.94l-292.83 0c-11.72,0 -21.7,-6.94 -25.78,-17.92l-58.76 -158.12c-4.09,-10.97 -14.07,-17.92 -25.78,-17.92zm-86.9 -321.76l-89.12 -245.96c-4.01,-11.08 -14.06,-18.14 -25.85,-18.14 -11.8,0 -21.84,7.04 -25.86,18.14l-89.13 245.96c-3.15,8.7 -1.98,17.59 3.34,25.16 5.31,7.57 13.27,11.71 22.52,11.71l178.26 0c9.25,0 17.2,-4.14 22.52,-11.71 5.31,-7.57 6.49,-16.46 3.33,-25.16z"/>
  <path class="fil1" d="M3439.43 737.85l-356.21 0c-25.12,0 -45.6,20.49 -45.6,45.6l0 395.19c0,25.11 -20.49,45.6 -45.61,45.6l-196.76 0c-25.12,0 -45.6,-20.49 -45.6,-45.6l0 -1133.03c0,-25.12 20.48,-45.61 45.6,-45.61l196.76 0c25.12,0 45.61,20.49 45.61,45.61l0 378.57c0,25.12 20.48,45.6 45.6,45.6l356.21 0c25.12,0 45.61,-20.48 45.61,-45.6l0 -378.57c0,-25.12 20.48,-45.61 45.6,-45.61l196.76 0c25.12,0 45.61,20.49 45.61,45.61l0 1133.03c0,25.11 -20.49,45.6 -45.61,45.6l-196.76 0c-25.12,0 -45.6,-20.49 -45.6,-45.6l0 -395.19c0,-25.11 -20.49,-45.6 -45.61,-45.6zm1428.49 374.14c-104.32,95.83 -231.47,137.16 -372.34,137.16 -140.89,0 -268.03,-41.34 -372.33,-137.16 -112.35,-103.2 -150.15,-246.63 -150.15,-395.28l0 -671.09c0,-25.12 20.49,-45.61 45.61,-45.61l196.76 0c25.12,0 45.6,20.49 45.6,45.61l0 677.73c0,67.4 13.48,136.82 58.45,189.37 44.29,51.75 110.46,66.72 176.06,66.72 65.61,0 131.78,-14.96 176.05,-66.72 44.96,-52.55 58.46,-121.96 58.46,-189.37l0 -677.73c0,-25.12 20.48,-45.61 45.6,-45.61l196.76 0c25.12,0 45.61,20.49 45.61,45.61l0 671.09c0,148.65 -37.8,292.08 -150.14,395.28zm1197.09 -474.16c19.3,15.96 36.66,34.45 51.87,55.59 37.14,51.64 53.26,110.98 53.26,174.36 0,101.55 -30.38,193.34 -107.23,261.88 -82.4,73.47 -195.15,94.59 -302.36,94.59l-496.79 0c-25.12,0 -45.6,-20.49 -45.6,-45.6l0 -1133.03c0,-25.12 20.48,-45.61 45.6,-45.61l475.21 0c108.65,0 225.58,20.6 308.4,96.46 72.9,66.79 106.18,151.93 106.18,250.06 0,61.14 -14.04,119.55 -47.7,171.01 -12.68,19.37 -27.17,36.76 -43.3,52.2 -9.75,9.33 -14.53,21.12 -14.04,34.61 0.49,13.48 6.12,24.89 16.51,33.49zm-565.53 145.62l0 132.11c0,25.12 20.48,45.61 45.6,45.61l208.81 0c79.1,0 126.6,-28.25 126.6,-111.66 0,-31.03 -7.93,-59.59 -30.49,-81.64 -24.81,-24.26 -62.86,-30.02 -96.11,-30.02l-208.81 0c-25.12,0 -45.6,20.49 -45.6,45.6zm0 -474.77l0 118.83c0,25.11 20.48,45.6 45.6,45.6l192.21 0c32.84,0 69.75,-5.48 95.84,-27.12 23.65,-19.62 30.76,-48.15 30.76,-77.91 0,-29.55 -8.77,-55.07 -30.29,-75.65 -24.93,-23.82 -63.26,-29.37 -96.31,-29.37l-192.21 0c-25.12,0 -45.6,20.49 -45.6,45.61z"/>
 </g>
</svg>
