<svg width="61" height="52" viewBox="0 0 61 52" fill="none" xmlns="http://www.w3.org/2000/svg">
<path fill-rule="evenodd" clip-rule="evenodd" d="M39.7688 43.7079H50.3278C50.6912 43.7079 51.0026 43.5454 51.1672 43.2696C51.3318 42.9937 51.3026 42.6837 51.0885 42.4339L39.0463 28.383C38.8635 28.1698 38.5969 28.0542 38.2867 28.054C37.9766 28.0536 37.7095 28.1688 37.5262 28.3818L32.2232 34.5454C31.9765 34.8321 31.9765 35.2061 32.2232 35.4928L39.0092 43.3801C39.1924 43.593 39.4589 43.7079 39.7688 43.7079Z" fill="white" fill-opacity="0.6"/>
<path fill-rule="evenodd" clip-rule="evenodd" d="M21.2313 43.7079H10.6722C10.3088 43.7079 9.99741 43.5454 9.83277 43.2696C9.66814 42.9938 9.6974 42.6837 9.91158 42.4339L23.6196 26.4384C23.8653 26.1517 23.8649 25.7786 23.6185 25.4922L9.91692 9.56733C9.70205 9.31759 9.67222 9.00726 9.83657 8.731C10.0011 8.45498 10.3128 8.29196 10.6765 8.29196H21.3487C21.6591 8.29196 21.9263 8.40748 22.1094 8.62112L36.5682 25.4916C36.8137 25.7782 36.8133 26.1514 36.567 26.4377L21.9911 43.38C21.808 43.5929 21.5412 43.7079 21.2313 43.7079Z" fill="white"/>
<path fill-rule="evenodd" clip-rule="evenodd" d="M32.219 16.406L38.8908 8.62112C39.0739 8.40748 39.3411 8.29196 39.6516 8.29196H50.3236C50.6872 8.29196 50.9989 8.45498 51.1634 8.731C51.3277 9.00726 51.2981 9.31759 51.083 9.56733L39.0517 23.5511C38.8683 23.7641 38.6012 23.8792 38.2911 23.8789C37.981 23.8787 37.7143 23.7632 37.5315 23.5499L32.219 17.351C31.9737 17.0647 31.9737 16.6924 32.219 16.406Z" fill="white" fill-opacity="0.6"/>
</svg>
